<?xml version="1.0" encoding="utf-8"?>
<!-- Generator: Adobe Illustrator 24.2.3, SVG Export Plug-In . SVG Version: 6.00 Build 0)  -->
<svg version="1.1" id="Layer_1" xmlns="http://www.w3.org/2000/svg" xmlns:xlink="http://www.w3.org/1999/xlink" x="0px" y="0px"
	 width="28.8px" height="29.3px" viewBox="0 0 28.8 29.3" style="enable-background:new 0 0 28.8 29.3;" xml:space="preserve">
<style type="text/css">
	.st0{fill:#00785E;}
</style>
<g>
	<path class="st0" d="M14.4,27.4c-7,0-12.7-5.7-12.7-12.7S7.4,1.9,14.4,1.9s12.7,5.7,12.7,12.7S21.4,27.4,14.4,27.4 M9.4,14.3
		c1.2,0.9,2.2,2.1,3,3.5c1.8-3.3,4.1-6.5,6.9-8.9l1.1,1.3c-3,2.6-5.5,6.1-7.2,9.8l-0.8,1.7L11.7,20c-0.9-2-2-3.4-3.3-4.4L9.4,14.3z
		 M14.4,25.5c6,0,10.8-4.9,10.8-10.8S20.4,3.8,14.4,3.8S3.6,8.6,3.6,14.6S8.4,25.5,14.4,25.5"/>
</g>
</svg>
