<?xml version="1.0" encoding="utf-8"?>
<!-- Generator: Adobe Illustrator 24.2.3, SVG Export Plug-In . SVG Version: 6.00 Build 0)  -->
<svg version="1.1" id="Layer_1" xmlns="http://www.w3.org/2000/svg" xmlns:xlink="http://www.w3.org/1999/xlink" x="0px" y="0px"
	 width="28.8px" height="29.3px" viewBox="0 0 28.8 29.3" style="enable-background:new 0 0 28.8 29.3;" xml:space="preserve">
<style type="text/css">
	.st0{fill:#DB2E33;}
</style>
<g>
	<polygon class="st0" points="19.4,9 14.5,13.8 9.7,9 8.9,9.8 13.7,14.6 8.9,19.4 9.7,20.3 14.5,15.5 19.4,20.3 20.2,19.4 
		15.4,14.6 20.2,9.8 	"/>
</g>
<g>
	<g>
		<path class="st0" d="M14.4,27.6c-7.1,0-13-5.8-13-13s5.8-13,13-13s13,5.8,13,13S21.6,27.6,14.4,27.6z M14.4,3.7
			c-6,0-10.9,4.9-10.9,10.9c0,6,4.9,10.9,10.9,10.9c6,0,10.9-4.9,10.9-10.9C25.3,8.6,20.4,3.7,14.4,3.7z"/>
	</g>
</g>
</svg>
