<?xml version="1.0" encoding="utf-8"?>
<!-- Generator: Adobe Illustrator 24.2.3, SVG Export Plug-In . SVG Version: 6.00 Build 0)  -->
<svg version="1.1" id="Layer_1" xmlns="http://www.w3.org/2000/svg" xmlns:xlink="http://www.w3.org/1999/xlink" x="0px" y="0px"
	 width="28px" height="25px" viewBox="0 0 28 25" style="enable-background:new 0 0 28 25;" xml:space="preserve">
<style type="text/css">
	.st0{fill:#DB2E33;}
	.st1{fill:#FFFFFF;}
</style>
<g>
	<g>
		<path class="st0" d="M3,24.1c-2.1,0-2.9-1.5-1.9-3.3l11-19.1c1-1.8,2.7-1.8,3.8,0l11,19.1c1,1.8,0.2,3.3-1.9,3.3H3z"/>
	</g>
</g>
<g>
	<path class="st1" d="M14,16.5c-0.4,0-0.8-0.4-0.8-0.8V6.3c0-0.4,0.4-0.8,0.8-0.8s0.8,0.4,0.8,0.8v9.4C14.8,16.1,14.4,16.5,14,16.5z
		"/>
</g>
<g>
	<g>
		<path class="st1" d="M14,21.3c-0.7,0-1.3-0.6-1.3-1.3s0.6-1.3,1.3-1.3s1.3,0.6,1.3,1.3S14.7,21.3,14,21.3z M14,19.6
			c-0.2,0-0.3,0.1-0.3,0.3s0.1,0.3,0.3,0.3s0.3-0.1,0.3-0.3S14.2,19.6,14,19.6z"/>
	</g>
</g>
</svg>
