<?xml version="1.0" encoding="utf-8"?>
<!-- Generator: Adobe Illustrator 24.2.3, SVG Export Plug-In . SVG Version: 6.00 Build 0)  -->
<svg version="1.1" id="Layer_1" xmlns="http://www.w3.org/2000/svg" xmlns:xlink="http://www.w3.org/1999/xlink" x="0px" y="0px"
	 width="30.4px" height="29.5px" viewBox="0 0 30.4 29.5" style="enable-background:new 0 0 30.4 29.5;" xml:space="preserve">
<style type="text/css">
	.st0{fill:#384554;}
</style>
<g>
	<rect x="5" y="22.6" transform="matrix(0.7071 -0.7071 0.7071 0.7071 -15.7529 11.0592)" class="st0" width="1" height="3.9"/>
</g>
<g>
	<g>
		<path class="st0" d="M25.8,10.8l-6.6-6.6l1.9-1.9c0.9-0.9,2.5-0.9,3.4,0l3.1,3.1c0.9,0.9,0.9,2.5,0,3.4L25.8,10.8z M20.6,4.2
			l5.2,5.2L27,8.2c0.6-0.6,0.6-1.5,0-2L23.9,3c-0.6-0.6-1.5-0.6-2,0L20.6,4.2z"/>
	</g>
	<g>
		<path class="st0" d="M2.4,28.1c-0.1,0-0.3-0.1-0.3-0.1c-0.1-0.1-0.2-0.3-0.1-0.5l3.3-9.2c0-0.1,0.1-0.1,0.1-0.2L17.8,5.6l0.7,0.7
			L6.8,18L9,20.3L20.8,8.6l0.7,0.7L9.7,21l2.2,2.2l11.6-11.6l0.7,0.7L12,24.6c-0.1,0.1-0.1,0.1-0.2,0.1l-9.2,3.3
			C2.5,28.1,2.5,28.1,2.4,28.1z M6.1,18.8l-2.9,8l8-2.9L6.1,18.8z"/>
	</g>
</g>
</svg>
