<?xml version="1.0" encoding="utf-8"?>
<!-- Generator: Adobe Illustrator 24.2.3, SVG Export Plug-In . SVG Version: 6.00 Build 0)  -->
<svg version="1.1" id="Layer_1" xmlns="http://www.w3.org/2000/svg" xmlns:xlink="http://www.w3.org/1999/xlink" x="0px" y="0px"
	 width="71.8px" height="41.2px" viewBox="0 0 71.8 41.2" style="enable-background:new 0 0 71.8 41.2;" xml:space="preserve">
<style type="text/css">
	.st0{fill:#00785E;}
</style>
<g>
	<g>
		<path class="st0" d="M35.8,31.4c-9.1,0-16.5-7.4-16.5-16.5c0-4.8,2.1-9.4,5.8-12.6c0.5-0.4,1.3-0.4,1.8,0.1
			c0.4,0.5,0.4,1.3-0.1,1.8c-3.1,2.7-4.9,6.6-4.9,10.7c0,7.7,6.3,14,14,14c7.7,0,14-6.3,14-14c0-4-1.8-8-4.7-10.7
			c-0.5-0.5-0.6-1.3-0.1-1.8c0.5-0.5,1.3-0.6,1.8-0.1c3.5,3.1,5.5,7.8,5.5,12.5C52.4,24,44.9,31.4,35.8,31.4z"/>
	</g>
	<g>
		<path class="st0" d="M35.8,40.9c-19.5,0-34.9-19.2-35.5-20c-0.4-0.5-0.4-1.1,0-1.6c0.2-0.2,4-4.8,10.3-9.5
			c5.9-4.3,15-9.5,25.2-9.5c8.1,0,16.8,3.4,25.2,9.8c6.3,4.8,10.2,9.5,10.3,9.7c0.4,0.5,0.4,1.1,0,1.6c-0.2,0.2-4,4.9-10.3,9.7
			C52.6,37.5,43.9,40.9,35.8,40.9z M2.9,20.1c3.1,3.6,16.8,18.3,32.9,18.3c16.1,0,29.7-14.3,32.9-17.8C65.6,17.1,51.9,2.8,35.8,2.8
			C19.8,2.8,6.1,16.7,2.9,20.1z"/>
	</g>
	<g>
		<path class="st0" d="M41.3,20.3c-2.7,0-4.8-2.2-4.8-4.8c0-2.7,2.2-4.8,4.8-4.8s4.8,2.2,4.8,4.8C46.1,18.1,44,20.3,41.3,20.3z
			 M41.3,13.1c-1.3,0-2.3,1-2.3,2.3c0,1.3,1,2.3,2.3,2.3s2.3-1,2.3-2.3C43.6,14.2,42.6,13.1,41.3,13.1z"/>
	</g>
</g>
</svg>
