<?xml version="1.0" encoding="utf-8"?>
<!-- Generator: Adobe Illustrator 24.2.3, SVG Export Plug-In . SVG Version: 6.00 Build 0)  -->
<svg version="1.1" id="Layer_1" xmlns="http://www.w3.org/2000/svg" xmlns:xlink="http://www.w3.org/1999/xlink" x="0px" y="0px"
	 width="30.4px" height="23.5px" viewBox="0 0 30.4 23.5" style="enable-background:new 0 0 30.4 23.5;" xml:space="preserve">
<style type="text/css">
	.st0{clip-path:url(#SVGID_2_);}
	.st1{fill:#323E48;}
	.st2{fill:#384554;}
</style>
<g>
	<defs>
		<rect id="SVGID_1_" x="1.6" y="1.1" width="27.1" height="21.2"/>
	</defs>
	<clipPath id="SVGID_2_">
		<use xlink:href="#SVGID_1_"  style="overflow:visible;"/>
	</clipPath>
	<g class="st0">
		<path class="st1" d="M17,22.4c-4.4,0-8.1-3.6-8.1-8.1c0-4.4,3.6-8.1,8.1-8.1S25,9.8,25,14.3C25,18.7,21.4,22.4,17,22.4z M17,7.3
			c-3.9,0-7,3.1-7,7c0,3.9,3.1,7,7,7s7-3.2,7-7C24,10.4,20.8,7.3,17,7.3z M17,19.5c-2.9,0-5.2-2.3-5.2-5.2c0-2.9,2.3-5.2,5.2-5.2
			c2.9,0,5.2,2.3,5.2,5.2C22.2,17.1,19.8,19.5,17,19.5z M17,10.1c-2.3,0-4.1,1.9-4.1,4.1c0,2.3,1.9,4.2,4.1,4.2
			c2.3,0,4.1-1.9,4.1-4.2C21.1,12,19.2,10.1,17,10.1z"/>
	</g>
	<g class="st0">
		<path class="st1" d="M6.9,3H4.6C4.3,3,4,2.8,4,2.5S4.3,2,4.6,2h2.4c0.3,0,0.5,0.2,0.5,0.5S7.2,3,6.9,3z"/>
	</g>
	<g class="st0">
		<path class="st1" d="M27,20.3h-2.1v-1H27c0.4,0,0.7-0.3,0.7-0.7V6.3c0-0.4-0.3-0.7-0.7-0.7h-3c-0.1,0-0.3-0.1-0.4-0.2l-3.1-3.2
			h-6.9l-3.1,3.2c-0.1,0.1-0.2,0.2-0.4,0.2H3.4C3,5.5,2.7,5.9,2.7,6.3v12.3c0,0.4,0.3,0.7,0.7,0.7H9v1H3.4c-1,0-1.8-0.8-1.8-1.8V6.3
			c0-1,0.8-1.8,1.8-1.8h6.5l3.1-3.2c0.1-0.1,0.2-0.2,0.4-0.2h7.3c0.1,0,0.3,0.1,0.4,0.2l3.1,3.2H27c1,0,1.8,0.8,1.8,1.8v12.3
			C28.8,19.5,28,20.3,27,20.3z"/>
	</g>
	<g class="st0">
		<path class="st2" d="M5.7,8.8c-0.3,0-0.6-0.3-0.6-0.6s0.3-0.6,0.6-0.6c0.3,0,0.6,0.3,0.6,0.6S6.1,8.8,5.7,8.8z M5.7,8.1L5.7,8.1
			L5.7,8.1C5.8,8.1,5.7,8.1,5.7,8.1z"/>
	</g>
</g>
</svg>
