<?xml version="1.0" encoding="utf-8"?>
<!-- Generator: Adobe Illustrator 24.2.3, SVG Export Plug-In . SVG Version: 6.00 Build 0)  -->
<svg version="1.1" id="Layer_1" xmlns="http://www.w3.org/2000/svg" xmlns:xlink="http://www.w3.org/1999/xlink" x="0px" y="0px"
	 width="385.5px" height="191.8px" viewBox="0 0 385.5 191.8" style="enable-background:new 0 0 385.5 191.8;" xml:space="preserve"
	>
<style type="text/css">
	.st0{clip-path:url(#SVGID_4_);fill:url(#SVGID_5_);}
	.st1{clip-path:url(#SVGID_7_);fill:#FFFFFF;}
	.st2{fill:#FFFFFF;}
</style>
<g>
	<defs>
		<rect id="SVGID_1_" x="1.8" width="383.7" height="191.8"/>
	</defs>
	<clipPath id="SVGID_2_">
		<use xlink:href="#SVGID_1_"  style="overflow:visible;"/>
	</clipPath>
</g>
<g>
	<defs>
		<path id="SVGID_3_" d="M193.1,0C87.4,0.3,1.8,86.1,1.8,191.8h47c0-80,64.9-144.9,144.9-144.9c80,0,144.9,64.9,144.9,144.9h47
			C385.5,86.1,299.9,0.3,194.2,0H193.1z"/>
	</defs>
	<clipPath id="SVGID_4_">
		<use xlink:href="#SVGID_3_"  style="overflow:visible;"/>
	</clipPath>
	
		<linearGradient id="SVGID_5_" gradientUnits="userSpaceOnUse" x1="185.0928" y1="116.6997" x2="186.0928" y2="116.6997" gradientTransform="matrix(383.6693 0 0 -383.6693 -71012.6094 44870.0234)">
		<stop  offset="0" style="stop-color:#DB2E33"/>
		<stop  offset="0.3395" style="stop-color:#FF7200"/>
		<stop  offset="0.6648" style="stop-color:#FCA811"/>
		<stop  offset="0.6738" style="stop-color:#FCAA12"/>
		<stop  offset="0.7025" style="stop-color:#F0A815"/>
		<stop  offset="0.7538" style="stop-color:#D2A21F"/>
		<stop  offset="0.8218" style="stop-color:#9F982E"/>
		<stop  offset="0.904" style="stop-color:#5A8A43"/>
		<stop  offset="0.9974" style="stop-color:#03795D"/>
		<stop  offset="1" style="stop-color:#00785E"/>
	</linearGradient>
	<rect x="1.8" y="0" class="st0" width="383.7" height="191.8"/>
</g>
<g>
	<defs>
		<rect id="SVGID_6_" x="1.8" width="383.7" height="191.8"/>
	</defs>
	<clipPath id="SVGID_7_">
		<use xlink:href="#SVGID_6_"  style="overflow:visible;"/>
	</clipPath>
	<path class="st1" d="M263.7,34.2v-3.1c0-0.8-0.2-1.5-0.6-2.2c-0.3-0.5-1.4-1.5-1.8-1.8c-0.7-0.4-1.4-0.6-2.2-0.6h-4.7
		c-1.6,0-2.8,1.1-3.8,2.2c-0.5,0.6-1.1,1.5-1.3,2l3,0.8c0.6-1,1.7-2.1,2.2-2.1h4.3c0.4,0,0.7,0.1,1.2,0.7c0.5,0.5,0.7,0.8,0.7,1.2
		v2.8c0,0.4-0.1,0.7-0.7,1.2c-0.5,0.5-0.8,0.7-1.2,0.7h-4.6v2.9h4.6c0.4,0,0.7,0.1,1.2,0.7c0.5,0.5,0.7,0.8,0.7,1.2v3.1
		c0,0.4-0.1,0.7-0.7,1.2c-0.5,0.5-0.8,0.7-1.2,0.7h-4.3c-0.5,0-1.6-1.1-2.2-2.1l-3,0.8c0.3,0.6,0.8,1.4,1.3,2c1,1.2,2.2,2.2,3.8,2.2
		h4.7c0.8,0,1.5-0.2,2.2-0.6c0.5-0.3,1.5-1.4,1.8-1.8c0.4-0.7,0.6-1.4,0.6-2.2v-3.4c0-1.4-0.8-2.2-1.9-3.2
		C262.9,36.5,263.7,35.7,263.7,34.2"/>
	<path class="st1" d="M103.5,50l7.5-3.9c1.4-0.7,2.5-2,2.5-3.7v-2.7c0-0.8-0.2-1.5-0.6-2.2c-0.3-0.5-1.4-1.5-1.8-1.8
		c-0.7-0.4-1.4-0.6-2.2-0.6h-4.3c-1.6,0-2.7,1-3.8,2.2c-0.5,0.6-1,1.4-1.3,2l3,0.8c0.6-1,1.7-2.1,2.2-2.1h3.9c0.4,0,0.7,0.1,1.2,0.7
		c0.5,0.5,0.7,0.8,0.7,1.2v2.4c0,0.5-0.3,1-0.7,1.2l-7.5,3.9c-1.5,0.8-2.5,1.9-2.5,3.6v6.1h13.6v-2.9h-10.6v-3.1
		C102.6,50.8,102.9,50.3,103.5,50"/>
</g>
<polygon class="st2" points="18.5,152.7 18.5,155.6 23.1,155.6 23.1,174.6 26.2,174.6 26.2,152.7 "/>
<path class="st2" d="M355.5,167.1l6.7-11.5v11.5H355.5z M367.7,167.1h-2.5v-14.5h-4.5l-8.6,14.7v2.6h10.2v4.6h3V170h2.5V167.1z"/>
</svg>
