<?xml version="1.0" encoding="utf-8"?>
<!-- Generator: Adobe Illustrator 24.2.3, SVG Export Plug-In . SVG Version: 6.00 Build 0)  -->
<svg version="1.1" id="Layer_1" xmlns="http://www.w3.org/2000/svg" xmlns:xlink="http://www.w3.org/1999/xlink" x="0px" y="0px"
	 width="74.4px" height="53.9px" viewBox="0 0 74.4 53.9" style="enable-background:new 0 0 74.4 53.9;" xml:space="preserve">
<style type="text/css">
	.st0{fill:#FFFFFF;}
</style>
<g>
	<path class="st0" d="M6.8,18.8c0,0.8-0.2,1.3-0.5,1.9c-0.6,0.9-1.5,1.2-2.3,0.7C3.2,20.9,3,20,3.6,19c0.4-0.5,0.8-0.9,1.5-1.2
		l-1.6-1C3,17.2,2.5,17.7,2,18.4c-1.2,2-0.7,3.8,0.8,4.8C4.1,24,6,24.2,7.4,21.9c0.4-0.7,0.7-1.5,0.8-2.3L6.8,18.8z"/>
	<path class="st0" d="M11,14.9c-0.6,0.5-1.3,0.4-1.8-0.2c-0.6-0.6-0.6-1.3,0-1.8c0.5-0.5,1.3-0.4,1.8,0.2
		C11.5,13.7,11.5,14.4,11,14.9 M12.6,11.6c-1.1-1.2-2.9-1.7-4.7-0.1c-1.8,1.5-1.5,3.4-0.4,4.7c1.2,1.3,3,1.6,4.7,0.1
		C14,14.7,13.7,12.8,12.6,11.6"/>
</g>
<polygon class="st0" points="16,12.9 18,11.9 16.4,9.1 20.7,10.5 22.4,9.7 19.6,4.1 17.6,5.1 19.2,7.9 14.9,6.5 13.2,7.3 "/>
<g>
	<path class="st0" d="M23.9,8.9c0.7,0.2,1.4,0.1,2.2-0.1c1.6-0.4,2-1.5,1.7-2.4c-0.4-1.7-2.8-1.2-3-1.9c-0.1-0.3,0.1-0.5,0.5-0.6
		c0.5-0.1,1,0,1.7,0.4l-0.4-1.6c-0.7-0.3-1.4-0.3-2.1-0.1c-1.6,0.4-1.9,1.7-1.7,2.4c0.5,1.8,2.8,1.2,2.9,1.9
		c0.1,0.2-0.1,0.5-0.5,0.6c-0.5,0.1-1.1,0.1-1.8-0.2L23.9,8.9z"/>
</g>
<polygon class="st0" points="29.6,7.8 31.8,7.5 30.9,1.3 28.7,1.6 "/>
<g>
	<path class="st0" d="M36.1,5.7l-0.6,0l-0.1-3.3l0.6,0c1.2,0,1.6,0.8,1.6,1.6C37.7,5.1,37.2,5.7,36.1,5.7 M36.4,0.9l-3.1,0l0.1,6.3
		l3.5-0.1c2.2,0,3-1.7,2.9-3.1C39.8,2.6,38.8,0.8,36.4,0.9"/>
</g>
<polygon class="st0" points="41.4,7.3 46,8.1 46.3,6.8 43.7,6.4 43.9,5.2 46.2,5.6 46.4,4.2 44.1,3.9 44.3,2.8 46.8,3.2 47,1.9 
	42.3,1.1 "/>
<g>
	<path class="st0" d="M35,35.3c0.5-1,1.5-2.9,3.8-5.9c2.9-3.9,8.5-10.1,17.5-16.2L56,13c-14.8,8.6-21,17.8-21.1,17.9l-0.3,0.4
		L34.3,31c-0.1-0.1-7.4-8.2-19.2-10.5C25.3,23.6,33.1,33,35,35.3"/>
	<path class="st0" d="M35.1,37.9c0,0-8.2-13-19.6-17.1c10.1,6.5,15.3,13.7,19.7,23.3c3.8-13.7,13.9-23.5,23.3-30.2
		c0-0.2,0.1-0.4,0.1-0.5c0,0-0.4-0.2-0.7-0.4C39.3,25.4,35.1,37.9,35.1,37.9"/>
	<path class="st0" d="M55.2,12.6l-1.1-0.7c-12.2,6.4-20,14.4-20,14.4s-6.2-3.9-17.2-5.8c9.3,2.3,15.8,7.5,17.7,9.1
		C36.1,27.6,42.5,19.9,55.2,12.6"/>
	<path class="st0" d="M72.5,5.2c-3.3,0.7-6.4,1.6-9.4,2.7L63.2,8L62.8,11C66.5,8.6,69.9,6.7,72.5,5.2"/>
</g>
<path class="st0" d="M59.8,11.8l-1.6-1l2.1-1.6L59.8,11.8z M60.2,7.2L54.5,11l1.8,1.1l0.9-0.6l2.4,1.5l-0.2,1.1l1.8,1.1l0.9-6.8
	L60.2,7.2z"/>
<polygon class="st0" points="65.6,13.3 62.3,16.7 63.9,18.2 67.2,14.9 68.6,16.3 69.7,15.2 65.4,10.8 64.3,11.9 "/>
<polygon class="st0" points="66,20.9 68.4,25 69.6,24.3 68.3,22.1 69.3,21.5 70.5,23.5 71.6,22.8 70.5,20.8 71.4,20.3 72.7,22.5 
	73.9,21.8 71.5,17.7 "/>
<g>
	<path class="st0" d="M4.1,35.3c-0.7-0.4-1-0.7-1.4-1.2c-0.6-0.9-0.5-1.7,0.3-2.2c0.7-0.5,1.5-0.2,2.1,0.6c0.3,0.5,0.5,1,0.5,1.7
		l1.4-0.9c-0.1-0.6-0.4-1.3-0.8-1.9c-1.1-1.8-2.9-2.1-4.4-1.2c-1.1,0.7-2,2.3-0.7,4.4c0.4,0.7,1,1.2,1.6,1.5L4.1,35.3z"/>
	<path class="st0" d="M8.7,39.2c-0.6,0.5-1.2,0.6-1.7,0.1c-0.5-0.5-0.4-1.2,0.1-1.7C7.7,37,8.4,37,8.9,37.5
		C9.3,38,9.3,38.6,8.7,39.2 M10.1,36.3c-1.5-1.5-3.3-1.3-4.4-0.2c-1.2,1.1-1.4,2.8,0.1,4.4c1.5,1.6,3.3,1.2,4.4,0.2
		C11.2,39.6,11.6,37.9,10.1,36.3"/>
</g>
<polygon class="st0" points="9.6,44.1 11.3,45.3 12.9,42.7 13.7,46.8 15.2,47.7 18.4,42.8 16.6,41.7 15.1,44.3 14.2,40.2 12.8,39.2 
	"/>
<g>
	<path class="st0" d="M17.2,48.4c0.5,0.5,1,0.9,1.7,1.2c1.4,0.6,2.3,0,2.6-0.8c0.6-1.5-1.4-2.5-1.1-3.1c0.1-0.2,0.4-0.3,0.7-0.1
		c0.4,0.2,0.7,0.5,1,1.3l0.6-1.4c-0.4-0.6-0.8-1-1.5-1.3c-1.4-0.6-2.3,0.1-2.6,0.8c-0.7,1.6,1.3,2.5,1,3.1c-0.1,0.2-0.3,0.3-0.7,0.1
		c-0.5-0.2-0.9-0.5-1.2-1.1L17.2,48.4z"/>
</g>
<polygon class="st0" points="25.3,47 24.2,51.3 26.2,51.8 27.2,47.5 29,48 29.3,46.6 23.8,45.2 23.5,46.6 "/>
<g>
	<path class="st0" d="M32.7,49.4l-0.5-0.1l0.2-1.5l0.6,0c0.6,0.1,1,0.3,0.9,0.9C33.8,49.2,33.4,49.4,32.7,49.4 M35.5,51.4
		c-0.2-0.7-0.4-1.1-0.8-1.4c0.7-0.2,1-0.7,1.1-1.3c0.1-0.9-0.5-1.7-2.1-1.8l-3.3-0.3l-0.5,5.8l2,0.2l0.2-2.4l0.5,0.1
		c0.5,0.1,0.8,0.6,1.2,1.7l0.3,0.9l2,0.2L35.5,51.4z"/>
	<path class="st0" d="M43.5,46.7l-2.1,0.1l0.2,3c0.1,0.9-0.4,1.3-1,1.4c-0.6,0-1.1-0.3-1.2-1.1L39.2,47l-2,0.1l0.2,3.3
		c0.1,1.6,1.3,2.5,3.3,2.3c2-0.1,3-1.2,2.9-3L43.5,46.7z"/>
	<path class="st0" d="M50.5,48.8c-0.5,0.5-1,0.8-1.5,0.9c-1,0.3-1.8-0.1-2-1c-0.2-0.9,0.2-1.5,1.2-1.8c0.6-0.1,1.1-0.1,1.8,0.1
		l-0.5-1.7c-0.6-0.1-1.3,0-2,0.2c-2.1,0.6-2.9,2.1-2.5,3.8c0.4,1.3,1.6,2.6,4,2c0.8-0.2,1.5-0.6,2-1.1L50.5,48.8z"/>
</g>
<polygon class="st0" points="52.7,45.5 54.5,49.4 56.4,48.5 54.5,44.6 56.2,43.8 55.6,42.5 50.4,44.9 51,46.2 "/>
<g>
	<path class="st0" d="M60.9,44c-0.6,0.4-1.2,0.2-1.7-0.4c-0.5-0.7-0.4-1.3,0.2-1.7c0.6-0.4,1.2-0.2,1.7,0.4
		C61.5,42.9,61.5,43.6,60.9,44 M62.8,41.1c-0.9-1.2-2.5-1.9-4.3-0.6c-1.8,1.3-1.8,3-0.9,4.3c0.9,1.3,2.6,1.8,4.3,0.7
		C63.7,44.1,63.6,42.3,62.8,41.1"/>
	<path class="st0" d="M65.3,37.8l-0.4,0.4l-1.2-1l0.4-0.4c0.4-0.5,0.9-0.6,1.3-0.2C65.8,36.9,65.7,37.4,65.3,37.8 M68.6,36.9
		c-0.7-0.2-1.2-0.4-1.6-0.2c0.2-0.7,0.1-1.2-0.4-1.6c-0.7-0.6-1.7-0.7-2.8,0.5L61.7,38l4.3,4l1.4-1.5l-1.8-1.7l0.4-0.4
		c0.4-0.4,1-0.3,2.1,0.1l0.9,0.3l1.4-1.5L68.6,36.9z"/>
	<path class="st0" d="M70.7,35.9c0.5-0.3,1-0.8,1.4-1.5c0.8-1.3,0.4-2.3-0.3-2.7c-1.4-0.9-2.7,0.9-3.3,0.6c-0.2-0.1-0.2-0.4,0-0.7
		c0.2-0.4,0.7-0.6,1.4-0.8l-1.3-0.8c-0.7,0.3-1.2,0.6-1.5,1.2c-0.8,1.3-0.3,2.3,0.4,2.7c1.4,0.9,2.7-0.8,3.2-0.5
		c0.2,0.1,0.2,0.4,0,0.7c-0.3,0.4-0.7,0.7-1.4,1L70.7,35.9z"/>
	<path class="st0" d="M1.8,27.1c0-0.6,0.4-1,1-1c0.6,0,1,0.4,1,1c0,0.5-0.5,1-1,1C2.3,28.1,1.8,27.6,1.8,27.1"/>
	<path class="st0" d="M70.2,26.9c0-0.6,0.5-1,1-1c0.6,0,1,0.4,1,1c0,0.6-0.4,1-1,1C70.6,27.9,70.2,27.5,70.2,26.9"/>
	<path class="st0" d="M52.8,5.6c-0.2,0.5-0.7,0.6-1.4,0.4l-0.5-0.2l0.6-1.6L52,4.4C52.7,4.7,53,5.1,52.8,5.6 M53.1,3.7l-3.4-1.2
		l-2.2,5.9l2.1,0.8l0.9-2.5l0.5,0.2c0.6,0.2,0.7,0.9,0.8,2.1l0.1,1l2,0.7l-0.1-1.8c-0.1-0.8-0.1-1.3-0.5-1.6c0.7,0,1.2-0.4,1.4-1
		C55.1,5.3,54.6,4.3,53.1,3.7"/>
</g>
</svg>
