<?xml version="1.0" encoding="utf-8"?>
<!-- Generator: Adobe Illustrator 24.2.3, SVG Export Plug-In . SVG Version: 6.00 Build 0)  -->
<svg version="1.1" id="Layer_1" xmlns="http://www.w3.org/2000/svg" xmlns:xlink="http://www.w3.org/1999/xlink" x="0px" y="0px"
	 width="42px" height="42px" viewBox="0 0 42 42" style="enable-background:new 0 0 42 42;" xml:space="preserve">
<style type="text/css">
	.st0{fill:#FFFFFF;}
	.st1{fill:#323E48;}
</style>
<g>
	<path class="st0" d="M21,42c11.6,0,21-9.4,21-21S32.6,0,21,0S0,9.4,0,21S9.4,42,21,42"/>
	<path class="st1" d="M31.9,10.5c-0.5-0.5-1.2-0.5-1.7,0l-8.8,8.8l-8.8-8.8c-0.5-0.5-1.2-0.5-1.7,0c-0.5,0.5-0.5,1.2,0,1.7l8.8,8.8
		L11,29.8c-0.5,0.5-0.5,1.2,0,1.7c0.5,0.5,1.2,0.5,1.7,0l8.8-8.8l8.8,8.8c0.5,0.5,1.2,0.5,1.7,0c0.5-0.5,0.5-1.2,0-1.7L23.2,21
		l8.8-8.8C32.4,11.8,32.4,11,31.9,10.5"/>
</g>
</svg>
