<?xml version="1.0" encoding="utf-8"?>
<!-- Generator: Adobe Illustrator 24.2.3, SVG Export Plug-In . SVG Version: 6.00 Build 0)  -->
<svg version="1.1" id="Layer_1" xmlns="http://www.w3.org/2000/svg" xmlns:xlink="http://www.w3.org/1999/xlink" x="0px" y="0px"
	 width="58.6px" height="62.9px" viewBox="0 0 58.6 62.9" style="enable-background:new 0 0 58.6 62.9;" xml:space="preserve">
<style type="text/css">
	.st0{fill:#00785E;}
</style>
<g>
	<g>
		<path class="st0" d="M49.4,62.5l0-14.8l1.3,0c1,0,2-0.4,2.8-1.2c0.7-0.7,1.1-1.7,1.1-2.8l0-10.5c0-1-0.4-2-1.2-2.8
			c-0.7-0.7-1.7-1.1-2.8-1.1c0,0,0,0,0,0l-6.3,0v-2.5l6.3,0c0,0,0,0,0,0c1.7,0,3.3,0.7,4.5,1.9c1.2,1.2,1.9,2.8,1.9,4.5l0,10.5
			c0,1.7-0.7,3.3-1.9,4.5c-0.9,0.9-2,1.5-3.3,1.8l0,12.5L49.4,62.5z M8.6,62.5l-2.5,0l0-12.5c-1.2-0.2-2.4-0.8-3.3-1.8
			c-1.2-1.2-1.9-2.8-1.9-4.5l0-10.5c0-1.7,0.7-3.3,1.9-4.5c1.2-1.2,2.8-1.9,4.5-1.9c0,0,0,0,0,0l6.3,0v2.5l-6.3,0c0,0,0,0,0,0
			c-1,0-2,0.4-2.8,1.1c-0.7,0.7-1.2,1.7-1.2,2.8l0,10.5c0,1,0.4,2,1.1,2.8c0.7,0.7,1.7,1.2,2.8,1.2l1.3,0L8.6,62.5z M33,62.5l0-18
			l1.2,0c2.1,0,3.9-1.8,3.9-3.9V26.4c0-1-0.4-2-1.2-2.8c-0.7-0.7-1.7-1.1-2.8-1.1c0,0,0,0,0,0H23.7c-1,0-2,0.4-2.8,1.2
			s-1.1,1.7-1.1,2.8l0,14.2c0,2.2,1.8,3.9,3.9,3.9c0,0,0,0,0,0l1.2,0l0,18l-2.5,0l0-15.6c-2.9-0.6-5.2-3.2-5.2-6.3l0-14.2
			c0-1.7,0.7-3.3,1.9-4.5c1.2-1.2,2.8-1.9,4.5-1.9h10.5c0,0,0,0,0,0c1.7,0,3.3,0.7,4.5,1.9c1.2,1.2,1.9,2.8,1.9,4.5v14.2
			c0,3.1-2.2,5.7-5.1,6.3l0,15.6L33,62.5z M48,23.2c-4.3,0-7.8-3.5-7.8-7.8c0-4.3,3.5-7.8,7.8-7.8c4.3,0,7.8,3.5,7.8,7.8
			C55.8,19.7,52.3,23.2,48,23.2z M48,10.1c-2.9,0-5.3,2.4-5.3,5.3c0,2.9,2.4,5.3,5.3,5.3s5.3-2.4,5.3-5.3
			C53.3,12.5,50.9,10.1,48,10.1z M10,23.2c-4.3,0-7.8-3.5-7.8-7.8c0-4.3,3.5-7.8,7.8-7.8c4.3,0,7.8,3.5,7.8,7.8
			C17.8,19.7,14.3,23.2,10,23.2z M10,10.1c-2.9,0-5.3,2.4-5.3,5.3c0,2.9,2.4,5.3,5.3,5.3c2.9,0,5.3-2.4,5.3-5.3
			C15.3,12.5,12.9,10.1,10,10.1z M29,16.5c-4.3,0-7.8-3.5-7.8-7.8s3.5-7.8,7.8-7.8s7.8,3.5,7.8,7.8S33.3,16.5,29,16.5z M29,3.4
			c-2.9,0-5.3,2.4-5.3,5.3S26.1,14,29,14s5.3-2.4,5.3-5.3S31.9,3.4,29,3.4z"/>
	</g>
</g>
</svg>
