<?xml version="1.0" encoding="utf-8"?>
<!-- Generator: Adobe Illustrator 23.0.2, SVG Export Plug-In . SVG Version: 6.00 Build 0)  -->
<svg version="1.1" id="Layer_1" xmlns="http://www.w3.org/2000/svg" xmlns:xlink="http://www.w3.org/1999/xlink" x="0px" y="0px"
	 viewBox="0 0 57.8 56.9" style="enable-background:new 0 0 57.8 56.9;" xml:space="preserve">
<style type="text/css">
	.st0{fill:#00785E;}
</style>
<g>
	<path class="st0" d="M36.2,46.2l-2.1-4.8l-1.7,0.8l2.1,4.6c-3.8,1-7.8,0.9-11.5-0.5l0.7-1.2l-1.6-1l-0.9,1.4
		c-3.1-1.5-5.7-3.8-7.5-6.6l3.1-2.1l-1.1-1.6l-3,2c-1.3-2.4-2-5.1-2.1-7.8h2.8v-1.9h-2.8c0.3-6.5,4-12.4,9.7-15.6l0.8,1.8l1.7-0.7
		l-0.8-1.9v0c1.7-0.7,3.4-1.2,5.2-1.4v0c0.4,0.3,0.9,0.6,1.4,0.7v3.9h1.9v-3.9c0.5-0.1,1-0.4,1.4-0.7v0c5.7,0.7,10.7,3.9,13.7,8.8
		l-2.4,1.7l1.1,1.5l2.2-1.6l0,0c1.2,2.3,1.8,4.9,1.9,7.5h-4.7v1.9h4.7c-0.1,1.7-0.4,3.3-0.9,4.9l-4.4-2l-0.8,1.7l4.5,2l0,0
		C44.7,40.7,40.9,44.3,36.2,46.2L36.2,46.2z M50.3,46.5c0,0.8-0.5,1.5-1.2,1.8c-0.7,0.3-1.5,0.1-2.1-0.4c-0.5-0.5-0.7-1.4-0.4-2.1
		c0.3-0.7,1-1.2,1.8-1.2C49.4,44.6,50.2,45.4,50.3,46.5L50.3,46.5z M27.5,6.7c0-0.6,0.3-1.2,0.8-1.5c0.5-0.4,1.1-0.5,1.7-0.3
		C30.5,5,31,5.4,31.2,6c0.2,0.6,0.1,1.2-0.2,1.7c-0.5,0-1.1-0.1-1.6-0.1c-0.5,0-1.1,0-1.6,0.1C27.6,7.4,27.5,7,27.5,6.7L27.5,6.7z
		 M54,36c0.8,0,1.5,0.5,1.8,1.2c0.3,0.7,0.1,1.5-0.4,2.1c-0.5,0.5-1.4,0.7-2.1,0.4c-0.7-0.3-1.2-1-1.2-1.8C52.2,36.9,53,36,54,36
		L54,36z M39.8,53.1c0,0.8-0.5,1.5-1.2,1.8c-0.7,0.3-1.5,0.1-2.1-0.4c-0.5-0.5-0.7-1.4-0.4-2.1c0.3-0.7,1-1.2,1.8-1.2
		C39,51.2,39.8,52.1,39.8,53.1L39.8,53.1z M19,53.1c-0.8,0-1.5-0.5-1.8-1.2c-0.3-0.7-0.1-1.5,0.4-2.1c0.5-0.5,1.4-0.7,2.1-0.4
		c0.7,0.3,1.2,1,1.2,1.8C20.9,52.3,20,53.1,19,53.1L19,53.1z M4.7,45.5c-0.8,0-1.5-0.5-1.8-1.2c-0.3-0.7-0.1-1.5,0.4-2.1
		c0.5-0.5,1.4-0.7,2.1-0.4c0.7,0.3,1.2,1,1.2,1.8C6.6,44.7,5.8,45.5,4.7,45.5L4.7,45.5z M3.8,30.4c-0.8,0-1.5-0.5-1.8-1.2
		c-0.3-0.7-0.1-1.5,0.4-2.1c0.5-0.5,1.4-0.7,2.1-0.4c0.7,0.3,1.2,1,1.2,1.8C5.7,29.5,4.8,30.4,3.8,30.4L3.8,30.4z M2.8,9.5
		C2.8,8.7,3.3,8,4,7.7c0.7-0.3,1.5-0.1,2.1,0.4c0.5,0.5,0.7,1.4,0.4,2.1c-0.3,0.7-1,1.2-1.8,1.2C3.7,11.4,2.8,10.5,2.8,9.5L2.8,9.5z
		 M16.1,3.8c0-0.8,0.5-1.5,1.2-1.8c0.7-0.3,1.5-0.1,2.1,0.4c0.5,0.5,0.7,1.4,0.4,2.1c-0.3,0.7-1,1.2-1.8,1.2
		C17,5.7,16.1,4.9,16.1,3.8L16.1,3.8z M43.6,1.9c0.8,0,1.5,0.5,1.8,1.2c0.3,0.7,0.1,1.5-0.4,2.1c-0.5,0.5-1.4,0.7-2.1,0.4
		c-0.7-0.3-1.2-1-1.2-1.8C41.7,2.8,42.6,1.9,43.6,1.9L43.6,1.9z M52.1,13.3c0.8,0,1.5,0.5,1.8,1.2c0.3,0.7,0.1,1.5-0.4,2.1
		c-0.5,0.5-1.4,0.7-2.1,0.4c-0.7-0.3-1.2-1-1.2-1.8C50.3,14.1,51.1,13.3,52.1,13.3L52.1,13.3z M54,26.6c0.8,0,1.5,0.5,1.8,1.2
		c0.3,0.7,0.1,1.5-0.4,2.1c-0.5,0.5-1.4,0.7-2.1,0.4c-0.7-0.3-1.2-1-1.2-1.8C52.1,27.4,53,26.6,54,26.6L54,26.6z M50.2,29.4h0.1
		c0.5,1.8,2.3,3.1,4.2,2.8c1.9-0.2,3.3-1.9,3.3-3.8s-1.4-3.5-3.3-3.8c-1.9-0.2-3.7,1-4.2,2.8h-0.1c-0.1-3-0.9-5.9-2.3-8.6l1.5-1.1h0
		c1.3,1.4,3.5,1.5,5,0.3c1.5-1.2,1.9-3.3,1-4.9c-1-1.6-3-2.3-4.8-1.6c-1.8,0.7-2.7,2.7-2.2,4.5L47,17.3v0c-1.7-2.7-4-4.9-6.7-6.6
		l1.9-3.4v0C44.1,8,46.1,7.3,47,5.6c0.9-1.7,0.4-3.8-1.2-4.9c-1.6-1.1-3.7-0.9-5,0.5c-1.3,1.4-1.3,3.6-0.1,5l-2,3.5
		C36.9,8.9,35,8.3,33,7.9c0.4-1.2,0.2-2.4-0.5-3.5c-0.7-1-1.9-1.6-3.1-1.6c-1.2,0-2.4,0.6-3.1,1.6c-0.7,1-0.9,2.3-0.5,3.5
		c-1.6,0.3-3.2,0.7-4.7,1.4l-1-2.3c1.6-1,2.1-3.1,1.3-4.8c-0.8-1.7-2.7-2.5-4.5-2c-1.8,0.5-2.9,2.3-2.6,4.2c0.3,1.9,1.9,3.2,3.8,3.2
		c0.1,0,0.2,0,0.3,0l1.1,2.6h0c-2.5,1.4-4.7,3.2-6.4,5.4L8,11.4C9,9.7,8.5,7.6,7,6.4c-1.5-1.1-3.7-1-5,0.4c-1.3,1.4-1.4,3.5-0.2,5
		c1.2,1.5,3.3,1.8,4.9,0.8l5.2,4.4c-2,3.1-3.2,6.7-3.3,10.4H7.5c-0.5-1.8-2.3-3.1-4.1-2.8C1.4,24.9,0,26.6,0,28.5s1.4,3.5,3.3,3.8
		c1.9,0.2,3.7-1,4.1-2.8h1.1c0.1,3.1,1,6.2,2.5,8.9l-3.7,2.5c-1.4-1.3-3.6-1.3-5,0c-1.4,1.3-1.7,3.4-0.7,5c1.1,1.6,3.1,2.1,4.8,1.3
		c1.7-0.9,2.5-2.8,1.9-4.6l3.7-2.4h0c2,3.1,4.8,5.6,8.1,7.2l-0.2,0.4h0c-1.9-0.5-3.8,0.5-4.5,2.3c-0.7,1.8,0,3.8,1.7,4.7
		c1.7,0.9,3.8,0.4,4.9-1.1c1.1-1.6,0.9-3.7-0.5-5l0.3-0.5c4.2,1.6,8.9,1.9,13.3,0.6l0.6,1.5c-1.6,1.1-2.1,3.1-1.3,4.8
		c0.8,1.7,2.7,2.5,4.5,2c1.8-0.5,2.9-2.3,2.6-4.2c-0.3-1.9-1.9-3.2-3.8-3.2c-0.1,0-0.2,0-0.3,0L37,47.9c2.6-1,5-2.5,7-4.5l1.2,1.2v0
		c-1,1.6-0.6,3.8,0.9,4.9c1.5,1.2,3.7,1,5-0.3c1.4-1.4,1.5-3.5,0.3-5c-1.2-1.5-3.3-1.9-4.9-0.9L45.2,42c1.3-1.6,2.4-3.3,3.3-5.2
		l1.8,0.8c0,0.1,0,0.2,0,0.3h0c0,1.9,1.4,3.5,3.2,3.8c1.9,0.3,3.6-0.8,4.2-2.6c0.6-1.8-0.3-3.7-2-4.5c-1.7-0.8-3.7-0.3-4.8,1.3
		l-1.7-0.8C49.8,33.2,50.1,31.3,50.2,29.4L50.2,29.4z"/>
	<path class="st0" d="M19.9,19.9c0.8,0,1.5,0.5,1.8,1.2c0.3,0.7,0.1,1.5-0.4,2.1c-0.5,0.5-1.4,0.7-2.1,0.4c-0.7-0.3-1.2-1-1.2-1.8
		C18,20.8,18.9,19.9,19.9,19.9L19.9,19.9z M19.9,25.6c0.9,0,1.8-0.3,2.5-0.9l0.6,0.6l1.3-1.3l-0.9-0.9v0c0.6-1.6,0-3.3-1.3-4.3
		c-1.3-1-3.1-1-4.5-0.1c-1.4,1-1.9,2.7-1.4,4.2C16.8,24.5,18.3,25.6,19.9,25.6L19.9,25.6z"/>
	<path class="st0" d="M26.5,41.7c-0.8,0-1.5-0.5-1.8-1.2c-0.3-0.7-0.1-1.5,0.4-2.1c0.5-0.5,1.4-0.7,2.1-0.4c0.7,0.3,1.2,1,1.2,1.8
		C28.4,40.9,27.6,41.7,26.5,41.7L26.5,41.7z M28.6,36.7l0.7-2.2l-1.8-0.6l-0.7,2.2c-0.1,0-0.2,0-0.3,0v0c-1.9,0-3.5,1.4-3.8,3.2
		s0.9,3.7,2.7,4.2c1.8,0.5,3.7-0.3,4.5-2.1C30.8,39.7,30.2,37.7,28.6,36.7L28.6,36.7z"/>
	<path class="st0" d="M35.1,18c0.8,0,1.5,0.5,1.8,1.2c0.3,0.7,0.1,1.5-0.4,2.1c-0.5,0.5-1.4,0.7-2.1,0.4c-0.7-0.3-1.2-1-1.2-1.8
		C33.2,18.9,34,18,35.1,18L35.1,18z M38.9,19.9c0-1.2-0.5-2.3-1.5-3c-0.9-0.7-2.2-1-3.3-0.6c-1.1,0.3-2.1,1.1-2.5,2.2
		c-0.4,1.1-0.4,2.3,0.2,3.4l-1.2,1.2l1.3,1.3l1.2-1.2c1.2,0.7,2.6,0.7,3.8,0C38.1,22.5,38.9,21.3,38.9,19.9L38.9,19.9z"/>
	<path class="st0" d="M37.5,33.2c-0.6,0-1.1-0.3-1.3-0.9c-0.2-0.5-0.1-1.1,0.3-1.6c0.4-0.4,1-0.5,1.6-0.3c0.5,0.2,0.9,0.7,0.9,1.3
		C38.9,32.6,38.2,33.2,37.5,33.2L37.5,33.2z M37.5,28.5c-1.3,0-2.6,0.8-3.1,2c-0.5,1.2-0.2,2.7,0.7,3.6c0.9,0.9,2.4,1.2,3.6,0.7
		c1.2-0.5,2-1.7,2-3.1C40.8,29.9,39.3,28.5,37.5,28.5L37.5,28.5z"/>
	<path class="st0" d="M19.4,34.2c-0.6,0-1.1-0.3-1.3-0.9c-0.2-0.5-0.1-1.1,0.3-1.6c0.4-0.4,1-0.5,1.6-0.3c0.5,0.2,0.9,0.7,0.9,1.3
		C20.9,33.5,20.2,34.2,19.4,34.2L19.4,34.2z M22.6,31.9l2.5-1.7l-1.1-1.6l-2.5,1.6c-1.2-1.1-3.1-1.1-4.3-0.1
		c-1.3,1.1-1.6,2.9-0.7,4.3c0.9,1.4,2.6,2,4.1,1.3C22.3,35.1,23.1,33.5,22.6,31.9L22.6,31.9z"/>
</g>
</svg>
