<?xml version="1.0" encoding="utf-8"?>
<!-- Generator: Adobe Illustrator 24.2.3, SVG Export Plug-In . SVG Version: 6.00 Build 0)  -->
<svg version="1.1" id="Layer_1" xmlns="http://www.w3.org/2000/svg" xmlns:xlink="http://www.w3.org/1999/xlink" x="0px" y="0px"
	 width="66.7px" height="73.4px" viewBox="0 0 66.7 73.4" style="enable-background:new 0 0 66.7 73.4;" xml:space="preserve">
<style type="text/css">
	.st0{fill:#00785E;}
</style>
<g>
	<g>
		<path class="st0" d="M6.7,73.4l0-18.6c-1.5-0.3-2.8-1-3.9-2.1c-1.5-1.4-2.3-3.4-2.3-5.4l0-16.9c0-2,0.8-3.9,2.2-5.4
			c1.4-1.5,3.4-2.3,5.4-2.3h12.5c0,0,0,0,0,0c4.2,0,7.6,3.4,7.6,7.6v16.9c0,3.7-2.6,6.8-6.1,7.5l0,18.6l-3,0l0-21.4l1.5,0
			c2.6,0,4.6-2.1,4.6-4.7V30.4c0-2.6-2.1-4.6-4.6-4.6c0,0,0,0,0,0H8.1c-1.2,0-2.4,0.5-3.3,1.4C4,28,3.5,29.2,3.5,30.4l0,16.9
			c0,1.2,0.5,2.4,1.4,3.3C5.8,51.5,6.9,52,8.2,52c0,0,0,0,0,0l1.5,0l0,21.4L6.7,73.4z M14.4,18.6c-5.1,0-9.3-4.2-9.3-9.3
			S9.3,0,14.4,0s9.3,4.2,9.3,9.3S19.6,18.6,14.4,18.6z M14.4,3c-3.5,0-6.3,2.8-6.3,6.3c0,3.5,2.8,6.3,6.3,6.3s6.3-2.8,6.3-6.3
			C20.7,5.8,17.9,3,14.4,3z"/>
	</g>
	<g>
		<path class="st0" d="M52.2,22.2c-1.1,0-1.9,0.9-1.9,1.9v10.7H39.7c-1.1,0-1.9,0.9-1.9,1.9c0,1.1,0.9,1.9,1.9,1.9h10.7v10.7
			c0,1.1,0.9,1.9,1.9,1.9c1.1,0,1.9-0.9,1.9-1.9V38.6h10.7c1.1,0,1.9-0.9,1.9-1.9c0-1.1-0.9-1.9-1.9-1.9H54.1V24.1
			C54.1,23.1,53.3,22.2,52.2,22.2"/>
	</g>
</g>
</svg>
