<?xml version="1.0" encoding="utf-8"?>
<!-- Generator: Adobe Illustrator 24.2.3, SVG Export Plug-In . SVG Version: 6.00 Build 0)  -->
<svg version="1.1" id="Layer_1" xmlns="http://www.w3.org/2000/svg" xmlns:xlink="http://www.w3.org/1999/xlink" x="0px" y="0px"
	 width="29px" height="27.4px" viewBox="0 0 29 27.4" style="enable-background:new 0 0 29 27.4;" xml:space="preserve">
<style type="text/css">
	.st0{fill:#FFFFFF;}
</style>
<g>
	<path class="st0" d="M11.3,23.3l-6.1-6.2L18.7,3.6l6.1,6.2L11.3,23.3z M6.6,17.1l4.7,4.7L23.4,9.8l-4.7-4.7L6.6,17.1z"/>
</g>
<g>
	<g>
		<polygon class="st0" points="2.2,26.3 3.8,18.5 5.2,17.1 5.9,17.8 4.8,19 3.5,25 9.5,23.7 10.7,22.5 11.4,23.3 10,24.6 		"/>
	</g>
	<g>
		<path class="st0" d="M24.8,9.8l-0.7-0.7l1.2-1.2c0.6-0.6,1-1.5,1-2.4c0-0.9-0.3-1.7-1-2.4c-1.3-1.3-3.5-1.3-4.7,0l-1.2,1.2
			l-0.7-0.7l1.2-1.2c0.8-0.8,1.9-1.3,3.1-1.3c1.2,0,2.3,0.5,3.1,1.3c0.8,0.8,1.3,1.9,1.3,3.1S26.8,7.8,26,8.6L24.8,9.8z"/>
	</g>
</g>
</svg>
