<?xml version="1.0" encoding="utf-8"?>
<!-- Generator: Adobe Illustrator 24.2.3, SVG Export Plug-In . SVG Version: 6.00 Build 0)  -->
<svg version="1.1" id="Layer_1" xmlns="http://www.w3.org/2000/svg" xmlns:xlink="http://www.w3.org/1999/xlink" x="0px" y="0px"
	 width="61.8px" height="62.1px" viewBox="0 0 61.8 62.1" style="enable-background:new 0 0 61.8 62.1;" xml:space="preserve">
<style type="text/css">
	.st0{clip-path:url(#SVGID_2_);fill:none;stroke:#00785E;stroke-width:2.5;stroke-linejoin:round;stroke-miterlimit:10;}
	.st1{clip-path:url(#SVGID_2_);fill:#00785E;}
	.st2{clip-path:url(#SVGID_2_);fill:none;stroke:#00785E;stroke-width:2;stroke-linejoin:round;stroke-miterlimit:10;}
	.st3{clip-path:url(#SVGID_2_);fill:none;stroke:#00785E;stroke-width:2;stroke-miterlimit:10;}
</style>
<g>
	<defs>
		<rect id="SVGID_1_" x="0.5" y="1.3" width="60.4" height="60.2"/>
	</defs>
	<clipPath id="SVGID_2_">
		<use xlink:href="#SVGID_1_"  style="overflow:visible;"/>
	</clipPath>
	<path class="st0" d="M32,2.8c0,0,15.1,13.1,0,30.4 M29.5,2.8c0,0-15.1,13.1,0,30.4 M46.5,18.1H15 M30.7,33.7V2.2"/>
	<path class="st1" d="M30.7,1.3c-9.3,0-16.8,7.5-16.8,16.8c0,9.3,7.5,16.8,16.8,16.8c9.3,0,16.8-7.5,16.8-16.8
		C47.5,8.8,40,1.3,30.7,1.3 M30.7,3.8c7.9,0,14.3,6.4,14.3,14.3c0,7.9-6.4,14.3-14.3,14.3S16.4,26,16.4,18.1
		C16.4,10.2,22.9,3.8,30.7,3.8"/>
	<path class="st2" d="M53.1,27.4l0-13c0-2.2,1.4-3.9,3.3-3.9c1.9,0,3.5,1.7,3.5,3.9l0,25.2L48.4,54.6c0,0-1.3,1.5-0.9,6.8"/>
	<path class="st3" d="M33.7,61.5l0-11.7c0-4.5,5.3-7.6,5.3-7.6c2.4-1.6,5.1-4.4,5.1-4.4l4.5-4.9c1.9-2,4.6-2.6,6-1.3
		c1.4,1.3,1.1,4-0.8,6.1l-6.4,6.9"/>
	<path class="st2" d="M8.4,27.4v-13c0-2.2-1.4-3.9-3.3-3.9c-1.9,0-3.5,1.7-3.5,3.9v25.2l11.5,15.1c0,0,1.3,1.5,0.9,6.8"/>
	<path class="st3" d="M27.8,61.5l0-11.7c0-4.5-5.3-7.6-5.3-7.6c-2.4-1.6-5.1-4.4-5.1-4.4l-4.5-4.9c-1.9-2-4.6-2.6-6-1.3
		c-1.4,1.3-1.1,4,0.8,6.1l6.4,6.9"/>
</g>
</svg>
