<?xml version="1.0" encoding="utf-8"?>
<!-- Generator: Adobe Illustrator 24.2.3, SVG Export Plug-In . SVG Version: 6.00 Build 0)  -->
<svg version="1.1" id="Layer_1" xmlns="http://www.w3.org/2000/svg" xmlns:xlink="http://www.w3.org/1999/xlink" x="0px" y="0px"
	 width="24px" height="24px" viewBox="0 0 24 24" style="enable-background:new 0 0 24 24;" xml:space="preserve">
<style type="text/css">
	.st0{fill:#00785E;}
	.st1{fill:#FFFFFF;}
</style>
<g>
	<path class="st0" d="M12,23.7c6.5,0,11.7-5.3,11.7-11.7c0-6.5-5.3-11.7-11.7-11.7S0.3,5.5,0.3,12C0.3,18.5,5.5,23.7,12,23.7"/>
	<path class="st1" d="M5.9,13.1C5.8,13,5.6,13,5.5,13.1L5,13.4c-0.1,0.1-0.2,0.3-0.1,0.4l4.4,6c0.1,0.1,0.2,0.1,0.3,0l8-13.6
		c0.1-0.1,0-0.3-0.1-0.4l-0.5-0.3c-0.1-0.1-0.3,0-0.4,0.1l-7.1,12c-0.1,0.1-0.2,0.2-0.3,0L5.9,13.1z"/>
</g>
</svg>
