<?xml version="1.0" encoding="utf-8"?>
<!-- Generator: Adobe Illustrator 24.2.3, SVG Export Plug-In . SVG Version: 6.00 Build 0)  -->
<svg version="1.1" id="Layer_1" xmlns="http://www.w3.org/2000/svg" xmlns:xlink="http://www.w3.org/1999/xlink" x="0px" y="0px"
	 width="32px" height="32px" viewBox="0 0 32 32" style="enable-background:new 0 0 32 32;" xml:space="preserve">
<style type="text/css">
	.st0{fill:#FFFFFF;}
</style>
<g>
	<g>
		<path class="st0" d="M15.8,31.5c-8.6,0-15.7-7-15.7-15.7s7-15.7,15.7-15.7s15.7,7,15.7,15.7S24.4,31.5,15.8,31.5z M15.8,1.4
			C7.8,1.4,1.4,7.9,1.4,15.8c0,7.9,6.5,14.4,14.4,14.4c7.9,0,14.4-6.5,14.4-14.4C30.1,7.9,23.7,1.4,15.8,1.4z"/>
	</g>
	<g>
		<path class="st0" d="M7.4,17c-0.1-0.2-0.4-0.2-0.5-0.1l-0.6,0.5C6.1,17.5,6,17.8,6.2,18l5.7,7.7c0.1,0.2,0.3,0.2,0.4,0L22.5,8.2
			c0.1-0.2,0.1-0.4-0.1-0.5l-0.7-0.4c-0.2-0.1-0.4,0-0.5,0.1l-9.1,15.4c-0.1,0.2-0.3,0.2-0.4,0L7.4,17z"/>
	</g>
</g>
</svg>
