<?xml version="1.0" encoding="utf-8"?>
<!-- Generator: Adobe Illustrator 24.2.3, SVG Export Plug-In . SVG Version: 6.00 Build 0)  -->
<svg version="1.1" id="Layer_1" xmlns="http://www.w3.org/2000/svg" xmlns:xlink="http://www.w3.org/1999/xlink" x="0px" y="0px"
	 width="38px" height="26px" viewBox="0 0 38 26" style="enable-background:new 0 0 38 26;" xml:space="preserve">
<style type="text/css">
	.st0{fill:#323E48;}
</style>
<g>
	<g>
		<path class="st0" d="M5.5,25.3c-0.1,0-0.2,0-0.2-0.1C5.1,25.2,5,25,5.1,24.8l1.6-7.6l-5.7-5.2c-0.1-0.1-0.2-0.3-0.1-0.4
			s0.2-0.3,0.4-0.3l7.7-0.8L12,3.5c0.1-0.3,0.6-0.3,0.8,0l3.1,7.1l7.7,0.8c0.2,0,0.3,0.1,0.4,0.3s0,0.3-0.1,0.4l-5.7,5.2l1.6,7.6
			c0,0.2,0,0.3-0.2,0.4c-0.1,0.1-0.3,0.1-0.5,0l-6.7-3.9l-6.7,3.9C5.6,25.3,5.6,25.3,5.5,25.3z M12.4,20.5c0.1,0,0.1,0,0.2,0.1
			l6.1,3.5l-1.5-6.9c0-0.1,0-0.3,0.1-0.4l5.2-4.7l-7-0.7c-0.1,0-0.3-0.1-0.3-0.2l-2.9-6.4l-2.9,6.4c-0.1,0.1-0.2,0.2-0.3,0.2l-7,0.7
			l5.2,4.7c0.1,0.1,0.2,0.3,0.1,0.4l-1.5,6.9l6.1-3.5C12.2,20.5,12.3,20.5,12.4,20.5z"/>
	</g>
	<g>
		<path class="st0" d="M26.5,21.7c-0.1,0-0.1,0-0.2-0.1l-6.1-3.5l0.4-0.7l5.3,3l-1.3-5.9c0-0.1,0-0.3,0.1-0.4l4.5-4.1l-6-0.6
			c-0.1,0-0.3-0.1-0.3-0.2l-2.5-5.6l-2.5,5.6l-0.8-0.3L20,2.4c0.1-0.3,0.6-0.3,0.8,0l2.8,6.2l6.7,0.7c0.2,0,0.3,0.1,0.4,0.3
			c0.1,0.2,0,0.3-0.1,0.4l-5,4.5l1.4,6.6c0,0.2,0,0.3-0.2,0.4C26.6,21.7,26.6,21.7,26.5,21.7z M33.3,18.8c-0.1,0-0.1,0-0.2-0.1
			l-5.6-3.2l0.4-0.7l4.8,2.8l-1.1-5.4c0-0.1,0-0.3,0.1-0.4L35.8,8l-5.5-0.6c-0.1,0-0.3-0.1-0.3-0.2l-2.3-5.1l-2.3,5.1l-0.8-0.3
			l2.6-5.9c0.1-0.3,0.6-0.3,0.8,0l2.5,5.7l6.2,0.7c0.2,0,0.3,0.1,0.4,0.3c0.1,0.2,0,0.3-0.1,0.4l-4.6,4.2l1.3,6.1
			c0,0.2,0,0.3-0.2,0.4C33.5,18.8,33.4,18.8,33.3,18.8z"/>
	</g>
</g>
</svg>
