<?xml version="1.0" encoding="utf-8"?>
<!-- Generator: Adobe Illustrator 24.2.3, SVG Export Plug-In . SVG Version: 6.00 Build 0)  -->
<svg version="1.1" id="Layer_1" xmlns="http://www.w3.org/2000/svg" xmlns:xlink="http://www.w3.org/1999/xlink" x="0px" y="0px"
	 width="41px" height="41px" viewBox="0 0 41 41" style="enable-background:new 0 0 41 41;" xml:space="preserve">
<style type="text/css">
	.st0{fill:#FFFFFF;}
</style>
<g>
	<path class="st0" d="M15.5,1.3C7.7,1.3,1.3,7.7,1.3,15.5c0,7.8,6.4,14.2,14.2,14.2c3.5,0,6.7-1.3,9.2-3.4l1.1,1.1
		c-0.8,1.6-0.6,3.6,0.7,4.9l6.7,6.7c1.6,1.6,4.3,1.6,5.9,0c1.6-1.6,1.6-4.3,0-5.9l-6.7-6.7c-0.8-0.8-1.9-1.2-3-1.2
		c-0.7,0-1.3,0.2-2,0.5l-1.1-1.1c2.1-2.5,3.4-5.7,3.4-9.2C29.8,7.7,23.4,1.3,15.5,1.3L15.5,1.3z M15.5,3.7c6.5,0,11.8,5.3,11.8,11.8
		c0,6.5-5.3,11.8-11.8,11.8C9,27.3,3.7,22.1,3.7,15.5S9,3.7,15.5,3.7 M15.5,9.4c-0.3,0-0.6,0.1-0.9,0.4c-0.2,0.2-0.3,0.5-0.3,0.9
		v3.7h-3.7c-0.3,0-0.6,0.1-0.9,0.3c-0.2,0.2-0.4,0.5-0.4,0.9c0,0.3,0.1,0.6,0.4,0.9c0.2,0.2,0.5,0.4,0.9,0.4h3.7v3.7
		c0,0.3,0.1,0.7,0.3,0.9c0.2,0.2,0.6,0.4,0.9,0.4c0.3,0,0.7-0.1,0.9-0.4c0.2-0.2,0.4-0.6,0.3-0.9v-3.7h3.7c0.5,0,1-0.3,1.2-0.8
		c0.2-0.5,0.1-1-0.3-1.3c-0.2-0.2-0.5-0.3-0.9-0.3h-3.7v-3.7c0-0.3-0.1-0.6-0.4-0.9C16.2,9.5,15.9,9.4,15.5,9.4z M29.4,27.7
		c0.4,0,0.9,0.2,1.2,0.5l6.7,6.7c0.7,0.7,0.7,1.8,0,2.5s-1.8,0.7-2.5,0l-6.7-6.7c-0.7-0.7-0.7-1.8,0-2.5
		C28.5,27.8,29,27.7,29.4,27.7z"/>
</g>
</svg>
