<?xml version="1.0" encoding="utf-8"?>
<!-- Generator: Adobe Illustrator 24.2.3, SVG Export Plug-In . SVG Version: 6.00 Build 0)  -->
<svg version="1.1" id="Layer_1" xmlns="http://www.w3.org/2000/svg" xmlns:xlink="http://www.w3.org/1999/xlink" x="0px" y="0px"
	 width="24px" height="32px" viewBox="0 0 24 32" style="enable-background:new 0 0 24 32;" xml:space="preserve">
<style type="text/css">
	.st0{fill:#FFFFFF;}
	.st1{fill:none;stroke:#FFFFFF;stroke-width:0.623;}
</style>
<g>
	<path class="st0" d="M20.3,11.5v-3c0-4.1-3.4-7.5-7.5-7.5h-1.6C7.1,1,3.7,4.3,3.7,8.4v3c-1.7,0.1-3,1.5-3,3.1v13.3
		c0,0.8,0.3,1.6,0.9,2.2c0.6,0.6,1.4,0.9,2.2,0.9h16.3c0.8,0,1.6-0.3,2.2-0.9c0.6-0.6,0.9-1.4,0.9-2.2V14.6
		C23.3,12.9,22,11.5,20.3,11.5L20.3,11.5z M5.7,8.4c0-3,2.5-5.5,5.5-5.5h1.6c3.1,0,5.5,2.5,5.5,5.5v3H5.7V8.4z M21.3,27.9
		c0,0.7-0.5,1.2-1.2,1.2H3.9c-0.7,0-1.2-0.5-1.2-1.2V14.6c0-0.7,0.5-1.2,1.2-1.2h16.3c0.7,0,1.2,0.5,1.2,1.2V27.9z"/>
	<path class="st1" d="M20.3,11.5v-3c0-4.1-3.4-7.5-7.5-7.5h-1.6C7.1,1,3.7,4.3,3.7,8.4v3c-1.7,0.1-3,1.5-3,3.1v13.3
		c0,0.8,0.3,1.6,0.9,2.2c0.6,0.6,1.4,0.9,2.2,0.9h16.3c0.8,0,1.6-0.3,2.2-0.9c0.6-0.6,0.9-1.4,0.9-2.2V14.6
		C23.3,12.9,22,11.5,20.3,11.5L20.3,11.5z M5.7,8.4c0-3,2.5-5.5,5.5-5.5h1.6c3.1,0,5.5,2.5,5.5,5.5v3H5.7V8.4z M21.3,27.9
		c0,0.7-0.5,1.2-1.2,1.2H3.9c-0.7,0-1.2-0.5-1.2-1.2V14.6c0-0.7,0.5-1.2,1.2-1.2h16.3c0.7,0,1.2,0.5,1.2,1.2V27.9z"/>
	<path class="st0" d="M12,17.8c-1,0-1.8,0.7-2,1.6c-0.2,1,0.3,1.9,1.1,2.4l-0.5,2.8h2.7l-0.5-2.8c0.9-0.4,1.4-1.4,1.1-2.4
		C13.8,18.5,13,17.8,12,17.8"/>
	<path class="st1" d="M12,17.8c-1,0-1.8,0.7-2,1.6c-0.2,1,0.3,1.9,1.1,2.4l-0.5,2.8h2.7l-0.5-2.8c0.9-0.4,1.4-1.4,1.1-2.4
		C13.8,18.5,13,17.8,12,17.8z"/>
</g>
</svg>
