<?xml version="1.0" encoding="utf-8"?>
<!-- Generator: Adobe Illustrator 24.2.3, SVG Export Plug-In . SVG Version: 6.00 Build 0)  -->
<svg version="1.1" id="Layer_1" xmlns="http://www.w3.org/2000/svg" xmlns:xlink="http://www.w3.org/1999/xlink" x="0px" y="0px"
	 width="27.5px" height="27.5px" viewBox="0 0 27.5 27.5" style="enable-background:new 0 0 27.5 27.5;" xml:space="preserve">
<style type="text/css">
	.st0{fill:#FFFFFF;}
	.st1{fill:#384554;}
</style>
<g>
	<g>
		<path class="st0" d="M13.8,27.5C6.2,27.5,0,21.3,0,13.8S6.2,0,13.8,0c7.6,0,13.8,6.2,13.8,13.8S21.3,27.5,13.8,27.5z M13.8,1.2
			C6.8,1.2,1.2,6.8,1.2,13.8c0,6.9,5.6,12.6,12.6,12.6c6.9,0,12.6-5.6,12.6-12.6C26.3,6.8,20.7,1.2,13.8,1.2z"/>
	</g>
	<g>
		<path class="st1" d="M13.7,19.1c0,0.2-0.1,0.3-0.3,0.3s-0.3-0.1-0.3-0.3c0-0.2,0.1-0.3,0.3-0.3S13.7,18.9,13.7,19.1"/>
	</g>
	<g>
		<path class="st0" d="M13.4,20c-0.5,0-0.9-0.4-0.9-0.9c0-0.5,0.4-0.9,0.9-0.9c0.5,0,0.9,0.4,0.9,0.9C14.3,19.6,13.9,20,13.4,20z
			 M13.4,18.8c-0.2,0-0.3,0.1-0.3,0.3c0,0.2,0.1,0.3,0.3,0.3c0.2,0,0.3-0.1,0.3-0.3C13.7,18.9,13.6,18.8,13.4,18.8z"/>
	</g>
	<g>
		<path class="st0" d="M14,16.9h-1.2c0-1.6,0.8-3.2,2.2-4.3c1.4-1,1.4-1.9,1.4-2c0-1.3-1.2-2.3-2.7-2.3c-1.5,0-2.7,1-2.7,2.3H9.9
			c0-1.9,1.7-3.4,3.8-3.4c2.1,0,3.8,1.5,3.8,3.4c0,0,0.1,1.6-1.9,2.9C14.6,14.4,14,15.6,14,16.9z"/>
	</g>
</g>
</svg>
