<?xml version="1.0" encoding="utf-8"?>
<!-- Generator: Adobe Illustrator 24.2.3, SVG Export Plug-In . SVG Version: 6.00 Build 0)  -->
<svg version="1.1" id="Layer_1" xmlns="http://www.w3.org/2000/svg" xmlns:xlink="http://www.w3.org/1999/xlink" x="0px" y="0px"
	 width="69.2px" height="62.1px" viewBox="0 0 69.2 62.1" style="enable-background:new 0 0 69.2 62.1;" xml:space="preserve">
<style type="text/css">
	.st0{clip-path:url(#SVGID_2_);}
	.st1{fill:#00785E;}
	.st2{clip-path:url(#SVGID_4_);}
	.st3{fill:#384554;}
</style>
<g>
	<defs>
		<rect id="SVGID_1_" x="0.9" y="0.9" width="67.7" height="60.2"/>
	</defs>
	<clipPath id="SVGID_2_">
		<use xlink:href="#SVGID_1_"  style="overflow:visible;"/>
	</clipPath>
	<g class="st0">
		<path class="st1" d="M61.7,61.1H7.6c-2.9,0-5-1-6.1-2.9c-1.1-1.9-0.9-4.3,0.5-6.8l27-46.7c1.4-2.5,3.4-3.8,5.6-3.8c0,0,0,0,0,0
			c2.2,0,4.1,1.4,5.6,3.9l27,46.7c1.4,2.5,1.6,4.9,0.6,6.8C66.7,60.1,64.6,61.1,61.7,61.1z M34.7,3.1c-1.4,0-2.7,1-3.7,2.8L4,52.6
			c-1,1.8-1.2,3.4-0.5,4.6C4.1,58.3,5.6,59,7.6,59h54.1c2.1,0,3.6-0.6,4.2-1.8s0.5-2.8-0.6-4.6l-27-46.7C37.4,4.1,36,3.1,34.7,3.1
			C34.7,3.1,34.7,3.1,34.7,3.1z M60.9,55.3H8.5c-0.4,0-0.7-0.2-0.9-0.5s-0.2-0.8,0-1.1L33.8,8.4c0.2-0.3,0.6-0.5,0.9-0.5l0,0
			c0.4,0,0.7,0.2,0.9,0.5l26.2,45.3c0.2,0.3,0.2,0.7,0,1.1C61.6,55.1,61.2,55.3,60.9,55.3z M10.4,53.1H59l-24.3-42L10.4,53.1z"/>
	</g>
</g>
<g>
	<path class="st1" d="M34.7,39.9c-0.6,0-1.1-0.5-1.1-1.1V24c0-0.6,0.5-1.1,1.1-1.1s1.1,0.5,1.1,1.1v14.8
		C35.8,39.4,35.3,39.9,34.7,39.9z"/>
</g>
<g>
	<defs>
		<rect id="SVGID_3_" x="0.9" y="0.9" width="67.7" height="60.2"/>
	</defs>
	<clipPath id="SVGID_4_">
		<use xlink:href="#SVGID_3_"  style="overflow:visible;"/>
	</clipPath>
	<g class="st2">
		<path class="st3" d="M35.5,45.4c0,0.5-0.4,0.8-0.8,0.8c-0.5,0-0.8-0.4-0.8-0.8c0-0.5,0.4-0.8,0.8-0.8C35.1,44.6,35.5,45,35.5,45.4
			"/>
	</g>
	<g class="st2">
		<path class="st1" d="M34.7,47.4c-1.1,0-1.9-0.9-1.9-1.9c0-1.1,0.9-1.9,1.9-1.9c1.1,0,1.9,0.9,1.9,1.9
			C36.6,46.5,35.7,47.4,34.7,47.4z M34.7,45.2c-0.1,0-0.2,0.1-0.2,0.2c0,0.3,0.5,0.3,0.5,0C34.9,45.3,34.8,45.2,34.7,45.2z"/>
	</g>
</g>
</svg>
