<?xml version="1.0" encoding="utf-8"?>
<!-- Generator: Adobe Illustrator 24.2.3, SVG Export Plug-In . SVG Version: 6.00 Build 0)  -->
<svg version="1.1" id="Layer_1" xmlns="http://www.w3.org/2000/svg" xmlns:xlink="http://www.w3.org/1999/xlink" x="0px" y="0px"
	 width="28.8px" height="29.3px" viewBox="0 0 28.8 29.3" style="enable-background:new 0 0 28.8 29.3;" xml:space="preserve">
<style type="text/css">
	.st0{fill:#FFFFFF;}
</style>
<g>
	<path class="st0" d="M26.7,25l-7.6-7.6c1.2-1.5,1.8-3.5,1.8-5.6c0-5.3-4.2-9.5-9.5-9.5s-9.5,4.2-9.5,9.5c0,5.2,4.2,9.5,9.5,9.5
		c2.1,0,4-0.7,5.6-1.8l7.6,7.6c0.3,0.3,0.7,0.4,1,0.4s0.7-0.1,1-0.4C27.2,26.5,27.2,25.6,26.7,25z M11.4,18.4
		c-3.6,0-6.6-2.9-6.6-6.6c0-3.6,2.9-6.6,6.6-6.6S18,8.2,18,11.8C18,15.5,15.1,18.4,11.4,18.4"/>
</g>
</svg>
