<?xml version="1.0" encoding="utf-8"?>
<!-- Generator: Adobe Illustrator 24.2.3, SVG Export Plug-In . SVG Version: 6.00 Build 0)  -->
<svg version="1.1" id="Layer_1" xmlns="http://www.w3.org/2000/svg" xmlns:xlink="http://www.w3.org/1999/xlink" x="0px" y="0px"
	 width="52.1px" height="73.4px" viewBox="0 0 52.1 73.4" style="enable-background:new 0 0 52.1 73.4;" xml:space="preserve">
<style type="text/css">
	.st0{fill:#00785E;}
</style>
<g>
	<path class="st0" d="M50.8,20.9C48.3,8.8,38,0.4,25.9,0.4c-1.7,0-3.4,0.2-5.1,0.5C14.1,2.2,8.4,6,4.6,11.7
		C0.8,17.4-0.6,24.2,0.8,31c0.9,4.5,2.7,8.7,4.4,12.2c3.3,7,7.6,14.1,13.5,22.5c1.3,1.8,2.6,3.6,4,5.4v0.1l0.3,0.4l0.1,0.1
		c0.7,0.9,1.7,1.3,2.7,1.3c0.7,0,1.9-0.3,3-1.6c4-5.2,7.4-10.3,10.6-15.4c3.6-5.8,8-13.5,10.7-22.1C51.5,29.5,51.7,25.1,50.8,20.9
		L50.8,20.9z M46.5,32.8C43.9,41,39.6,48.4,36.2,54c-3.1,5-6.5,9.9-10.3,15c0,0,0,0.1-0.1,0.1l-0.1-0.2c0,0,0-0.1-0.1-0.1
		c-1.3-1.8-2.6-3.6-3.9-5.4c-5.8-8.2-10-15.1-13.2-21.9c-1.6-3.3-3.3-7.2-4.1-11.4c-1.2-5.8,0-11.7,3.2-16.5
		c3.2-4.8,8.2-8.1,13.9-9.2C23,4.1,24.4,4,25.9,4C36.3,4,45,11.2,47.2,21.6C48,25.2,47.7,29,46.5,32.8L46.5,32.8z M25.6,13.8
		c-6.5,0-11.8,5.3-11.8,11.8s5.3,11.8,11.8,11.8s11.8-5.3,11.8-11.8C37.4,19.1,32.1,13.8,25.6,13.8 M25.6,33.7
		c-4.5,0-8.1-3.6-8.1-8.1s3.6-8.1,8.1-8.1s8.1,3.6,8.1,8.1S30.1,33.7,25.6,33.7"/>
</g>
</svg>
