<?xml version="1.0" encoding="utf-8"?>
<!-- Generator: Adobe Illustrator 24.2.3, SVG Export Plug-In . SVG Version: 6.00 Build 0)  -->
<svg version="1.1" id="Layer_1" xmlns="http://www.w3.org/2000/svg" xmlns:xlink="http://www.w3.org/1999/xlink" x="0px" y="0px"
	 width="65.7px" height="64.3px" viewBox="0 0 65.7 64.3" style="enable-background:new 0 0 65.7 64.3;" xml:space="preserve">
<style type="text/css">
	.st0{fill:#00785E;}
</style>
<g>
	<g>
		<path class="st0" d="M16.1,0.7c-0.4,0-0.7,0.3-0.7,0.8v4H9.6c-4.9,0-8.9,4-8.9,8.8v40.3c0,4.9,4,8.8,8.9,8.8h46.5
			c4.9,0,8.9-4,8.9-8.8V14.4c0-4.9-4-8.8-8.9-8.8h-5.8v-4c0-0.4-0.3-0.8-0.8-0.8c-0.4,0-0.7,0.3-0.7,0.8v4H33.6v-4
			c0-0.4-0.3-0.8-0.8-0.8c-0.4,0-0.7,0.3-0.7,0.8v4H16.9v-4C16.9,1.1,16.6,0.7,16.1,0.7L16.1,0.7z M9.6,7h5.8v6.3
			c-0.1,1.1,1.6,1.1,1.5,0V7h15.2v6.3c0,1,1.5,1,1.5,0V7h15.2v6.3c0,1,1.5,1,1.5,0V7h5.8c4.1,0,7.4,3.3,7.4,7.4v1.9
			c0,0-61.2,0-61.3,0v-1.9C2.2,10.3,5.5,7,9.6,7L9.6,7z M63.5,17.8v36.9c0,4.1-3.3,7.4-7.4,7.4H9.6c-4.1,0-7.4-3.3-7.4-7.4V17.8
			C2.3,17.8,63.5,17.8,63.5,17.8z M14.9,23.6c-1.4,0-2.6,1.2-2.6,2.6s1.2,2.6,2.6,2.6c1.4,0,2.6-1.2,2.6-2.6S16.4,23.6,14.9,23.6
			 M26.9,23.6c-1.4,0-2.6,1.2-2.6,2.6s1.2,2.6,2.6,2.6c1.4,0,2.6-1.2,2.6-2.6S28.3,23.6,26.9,23.6 M38.8,23.6
			c-1.4,0-2.6,1.2-2.6,2.6s1.2,2.6,2.6,2.6c1.4,0,2.6-1.2,2.6-2.6S40.3,23.6,38.8,23.6 M50.8,23.6c-1.4,0-2.6,1.2-2.6,2.6
			s1.2,2.6,2.6,2.6c1.4,0,2.6-1.2,2.6-2.6S52.2,23.6,50.8,23.6 M14.9,34c-1.4,0-2.6,1.2-2.6,2.6c0,1.4,1.2,2.6,2.6,2.6
			c1.4,0,2.6-1.2,2.6-2.6C17.6,35.2,16.4,34,14.9,34 M26.9,34c-1.4,0-2.6,1.2-2.6,2.6c0,1.4,1.2,2.6,2.6,2.6c1.4,0,2.6-1.2,2.6-2.6
			C29.5,35.2,28.3,34,26.9,34 M38.8,34c-1.4,0-2.6,1.2-2.6,2.6c0,1.4,1.2,2.6,2.6,2.6c1.4,0,2.6-1.2,2.6-2.6
			C41.5,35.2,40.3,34,38.8,34 M50.8,34c-1.4,0-2.6,1.2-2.6,2.6c0,1.4,1.2,2.6,2.6,2.6c1.4,0,2.6-1.2,2.6-2.6
			C53.4,35.2,52.2,34,50.8,34 M14.9,44.4c-1.4,0-2.6,1.2-2.6,2.6c0,1.4,1.2,2.6,2.6,2.6c1.4,0,2.6-1.2,2.6-2.6
			C17.6,45.6,16.4,44.4,14.9,44.4 M26.9,44.4c-1.4,0-2.6,1.2-2.6,2.6c0,1.4,1.2,2.6,2.6,2.6c1.4,0,2.6-1.2,2.6-2.6
			C29.5,45.6,28.3,44.4,26.9,44.4 M38.8,44.4c-1.4,0-2.6,1.2-2.6,2.6c0,1.4,1.2,2.6,2.6,2.6c1.4,0,2.6-1.2,2.6-2.6
			C41.5,45.6,40.3,44.4,38.8,44.4 M50.8,44.4c-1.4,0-2.6,1.2-2.6,2.6c0,1.4,1.2,2.6,2.6,2.6c1.4,0,2.6-1.2,2.6-2.6
			C53.4,45.6,52.2,44.4,50.8,44.4"/>
	</g>
	<g>
		<path class="st0" d="M56.1,64.3H9.6C4.3,64.3,0,60,0,54.7V14.4c0-5.3,4.3-9.6,9.6-9.6h5V1.5c0-0.8,0.6-1.5,1.5-1.5h0
			c0.4,0,0.8,0.2,1.1,0.4c0.3,0.3,0.4,0.7,0.4,1.1v3.3h13.7V1.5c0-0.4,0.1-0.8,0.4-1.1C32.1,0.2,32.5,0,32.9,0
			c0.4,0,0.8,0.2,1.1,0.4c0.3,0.3,0.4,0.7,0.4,1.1v3.3h13.7V1.5c0-0.4,0.1-0.8,0.4-1.1C48.8,0.2,49.2,0,49.6,0
			c0.4,0,0.8,0.2,1.1,0.4c0.3,0.3,0.4,0.7,0.4,1.1v3.3h5c5.3,0,9.6,4.3,9.6,9.6v40.3C65.7,60,61.4,64.3,56.1,64.3z M3,18.5v36.2
			c0,3.7,2.9,6.6,6.6,6.6h46.5c3.7,0,6.6-2.9,6.6-6.6V18.5L3,18.5z M3,15.5l59.8,0v-1.2c0-3.7-2.9-6.6-6.6-6.6h-5v5.6
			c0,0.8-0.7,1.5-1.5,1.5h0c-0.8,0-1.5-0.6-1.5-1.5V7.8H34.4v5.6c0,0.5-0.2,1-0.7,1.3c-0.5,0.3-1.1,0.3-1.6,0
			c-0.5-0.3-0.7-0.8-0.7-1.3V7.8H17.6v5.6c0,0.5-0.2,1-0.7,1.3c-0.5,0.3-1.1,0.3-1.6,0c-0.5-0.3-0.7-0.8-0.7-1.4l0-5.5H9.4
			C5.8,7.9,3,10.7,3,14.4V15.5z M50.8,50.4c-1.9,0-3.4-1.5-3.4-3.4c0-1.8,1.5-3.4,3.4-3.4c1.9,0,3.4,1.5,3.4,3.4
			C54.2,48.9,52.6,50.4,50.8,50.4z M50.8,45.2c-1,0-1.9,0.8-1.9,1.9c0,1,0.8,1.9,1.9,1.9c1,0,1.9-0.8,1.9-1.9
			C52.7,46,51.8,45.2,50.8,45.2z M38.8,50.4c-1.9,0-3.4-1.5-3.4-3.4c0-1.8,1.5-3.4,3.4-3.4s3.4,1.5,3.4,3.4
			C42.2,48.9,40.7,50.4,38.8,50.4z M38.8,45.2c-1,0-1.9,0.8-1.9,1.9c0,1,0.8,1.9,1.9,1.9s1.9-0.8,1.9-1.9
			C40.7,46,39.9,45.2,38.8,45.2z M26.9,50.4c-1.9,0-3.4-1.5-3.4-3.4c0-1.8,1.5-3.4,3.4-3.4s3.4,1.5,3.4,3.4
			C30.3,48.9,28.7,50.4,26.9,50.4z M26.9,45.2c-1,0-1.9,0.8-1.9,1.9c0,1,0.8,1.9,1.9,1.9s1.9-0.8,1.9-1.9
			C28.8,46,27.9,45.2,26.9,45.2z M14.9,50.4c-1.9,0-3.4-1.5-3.4-3.4c0-1.8,1.5-3.4,3.4-3.4c1.9,0,3.4,1.5,3.4,3.4
			C18.3,48.9,16.8,50.4,14.9,50.4z M14.9,45.2c-1,0-1.9,0.8-1.9,1.9c0,1,0.8,1.9,1.9,1.9c1,0,1.9-0.8,1.9-1.9
			C16.8,46,16,45.2,14.9,45.2z M50.8,40c-1.9,0-3.4-1.5-3.4-3.4c0-1.8,1.5-3.4,3.4-3.4c1.9,0,3.4,1.5,3.4,3.4
			C54.2,38.5,52.6,40,50.8,40z M50.8,34.8c-1,0-1.9,0.8-1.9,1.9c0,1,0.8,1.9,1.9,1.9c1,0,1.9-0.8,1.9-1.9
			C52.7,35.6,51.8,34.8,50.8,34.8z M38.8,40c-1.9,0-3.4-1.5-3.4-3.4c0-1.8,1.5-3.4,3.4-3.4s3.4,1.5,3.4,3.4
			C42.2,38.5,40.7,40,38.8,40z M38.8,34.8c-1,0-1.9,0.8-1.9,1.9c0,1,0.8,1.9,1.9,1.9s1.9-0.8,1.9-1.9C40.7,35.6,39.9,34.8,38.8,34.8
			z M26.9,40c-1.9,0-3.4-1.5-3.4-3.4c0-1.8,1.5-3.4,3.4-3.4s3.4,1.5,3.4,3.4C30.3,38.5,28.7,40,26.9,40z M26.9,34.8
			c-1,0-1.9,0.8-1.9,1.9c0,1,0.8,1.9,1.9,1.9s1.9-0.8,1.9-1.9C28.8,35.6,27.9,34.8,26.9,34.8z M14.9,40c-1.9,0-3.4-1.5-3.4-3.4
			c0-1.8,1.5-3.4,3.4-3.4c1.9,0,3.4,1.5,3.4,3.4C18.3,38.5,16.8,40,14.9,40z M14.9,34.8c-1,0-1.9,0.8-1.9,1.9c0,1,0.8,1.9,1.9,1.9
			c1,0,1.9-0.8,1.9-1.9C16.8,35.6,16,34.8,14.9,34.8z M50.8,29.6c-1.9,0-3.4-1.5-3.4-3.4c0-1.8,1.5-3.4,3.4-3.4
			c1.9,0,3.4,1.5,3.4,3.4C54.2,28.1,52.6,29.6,50.8,29.6z M50.8,24.4c-1,0-1.9,0.8-1.9,1.9c0,1,0.8,1.9,1.9,1.9c1,0,1.9-0.8,1.9-1.9
			C52.7,25.2,51.8,24.4,50.8,24.4z M38.8,29.6c-1.9,0-3.4-1.5-3.4-3.4c0-1.8,1.5-3.4,3.4-3.4s3.4,1.5,3.4,3.4
			C42.2,28.1,40.7,29.6,38.8,29.6z M38.8,24.4c-1,0-1.9,0.8-1.9,1.9c0,1,0.8,1.9,1.9,1.9s1.9-0.8,1.9-1.9
			C40.7,25.2,39.9,24.4,38.8,24.4z M26.9,29.6c-1.9,0-3.4-1.5-3.4-3.4c0-1.8,1.5-3.4,3.4-3.4s3.4,1.5,3.4,3.4
			C30.3,28.1,28.7,29.6,26.9,29.6z M26.9,24.4c-1,0-1.9,0.8-1.9,1.9c0,1,0.8,1.9,1.9,1.9s1.9-0.8,1.9-1.9
			C28.8,25.2,27.9,24.4,26.9,24.4z M14.9,29.6c-1.9,0-3.4-1.5-3.4-3.4c0-1.8,1.5-3.4,3.4-3.4s3.4,1.5,3.4,3.4
			C18.3,28.1,16.8,29.6,14.9,29.6z M14.9,24.4c-1,0-1.9,0.8-1.9,1.9c0,1,0.8,1.9,1.9,1.9s1.9-0.8,1.9-1.9
			C16.8,25.2,16,24.4,14.9,24.4z"/>
	</g>
</g>
</svg>
