<?xml version="1.0" encoding="utf-8"?>
<!-- Generator: Adobe Illustrator 24.2.3, SVG Export Plug-In . SVG Version: 6.00 Build 0)  -->
<svg version="1.1" id="Layer_1" xmlns="http://www.w3.org/2000/svg" xmlns:xlink="http://www.w3.org/1999/xlink" x="0px" y="0px"
	 width="107.3px" height="57px" viewBox="0 0 107.3 57" style="enable-background:new 0 0 107.3 57;" xml:space="preserve">
<style type="text/css">
	.st0{fill:none;stroke:#00785E;stroke-width:2.5;stroke-linecap:round;stroke-linejoin:round;stroke-miterlimit:10;}
</style>
<g>
	<path class="st0" d="M69.9,21.4c-0.5,2.4-0.4,4.4-0.4,4.4c0,6.3,2.5,13.3,6.5,16.3c0,0,0.6,0.4,1.1,0.6 M92.5,21.4
		c0.5,2.4,0.4,4.4,0.4,4.4c0,6.3-2.5,13.3-6.5,16.3c0,0-0.6,0.4-1.1,0.6 M73.2,39.1c0,2,0,7.3,0,7.3s0.5,2.7-15.6,6.8 M89.2,39.1
		c0,2,0,7.3,0,7.3s-0.5,2.7,15.6,6.8 M67.1,21.3h8.2l3.4-6.8l4,6.8h12.6 M60.5,42.8v-18c0-22.4,19.8-21.7,20.7-21.7
		c0.9,0,20.7-0.8,20.7,21.7v18 M32.3,41.2c2.2-0.5,3.4-1.5,3.4-1.5c3.8-2.7,6.2-11.2,6.9-17.1c1-8.7-0.1-19.2-15.3-19.5h-0.1
		C11.9,3.4,10.7,13.8,11.8,22.6c0.7,5.9,3.1,14.4,6.9,17.1c0,0,1.1,1,3.4,1.5 M35.7,40.2c0,2.1,0,6.5,0,6.5s-0.5,2.8,16.1,7
		 M18.7,40.2c0,2.1,0,6.5,0,6.5s0.5,2.8-16.1,7 M18.4,19.2c0,0,11.2,1.6,14.8-7c0,0,3.8,7,9.3,7"/>
</g>
</svg>
